<svg width="70" height="74" viewBox="0 0 70 74" fill="none" xmlns="http://www.w3.org/2000/svg">
<g filter="url(#filter0_d_19_6)">
<circle cx="35" cy="35" r="31" fill="#0AA351"/>
</g>
<path d="M70 35C70 54.33 54.33 70 35 70C15.67 70 0 54.33 0 35C0 15.67 15.67 0 35 0C54.33 0 70 15.67 70 35ZM2.68158 35C2.68158 52.849 17.151 67.3184 35 67.3184C52.849 67.3184 67.3184 52.849 67.3184 35C67.3184 17.151 52.849 2.68158 35 2.68158C17.151 2.68158 2.68158 17.151 2.68158 35Z" fill="#0AA351" fill-opacity="0.53"/>
<defs>
<filter id="filter0_d_19_6" x="0" y="4" width="70" height="70" filterUnits="userSpaceOnUse" color-interpolation-filters="sRGB">
<feFlood flood-opacity="0" result="BackgroundImageFix"/>
<feColorMatrix in="SourceAlpha" type="matrix" values="0 0 0 0 0 0 0 0 0 0 0 0 0 0 0 0 0 0 127 0" result="hardAlpha"/>
<feOffset dy="4"/>
<feGaussianBlur stdDeviation="2"/>
<feComposite in2="hardAlpha" operator="out"/>
<feColorMatrix type="matrix" values="0 0 0 0 0 0 0 0 0 0 0 0 0 0 0 0 0 0 0.25 0"/>
<feBlend mode="normal" in2="BackgroundImageFix" result="effect1_dropShadow_19_6"/>
<feBlend mode="normal" in="SourceGraphic" in2="effect1_dropShadow_19_6" result="shape"/>
</filter>
</defs>
</svg>
