<svg width="210" height="210" viewBox="0 0 210 210" fill="none" xmlns="http://www.w3.org/2000/svg">
<path d="M210 105C210 162.99 162.99 210 105 210C47.0101 210 0 162.99 0 105C0 47.0101 47.0101 0 105 0C162.99 0 210 47.0101 210 105ZM8.04475 105C8.04475 158.547 51.4531 201.955 105 201.955C158.547 201.955 201.955 158.547 201.955 105C201.955 51.4531 158.547 8.04475 105 8.04475C51.4531 8.04475 8.04475 51.4531 8.04475 105Z" fill="#0AA351" fill-opacity="0.53"/>
<path d="M193 103.5C193 152.377 153.377 192 104.5 192C55.6228 192 16 152.377 16 103.5C16 54.6228 55.6228 15 104.5 15C153.377 15 193 54.6228 193 103.5ZM33.7 103.5C33.7 142.602 65.3982 174.3 104.5 174.3C143.602 174.3 175.3 142.602 175.3 103.5C175.3 64.3982 143.602 32.7 104.5 32.7C65.3982 32.7 33.7 64.3982 33.7 103.5Z" fill="url(#paint0_angular_42_56)"/>
<defs>
<radialGradient id="paint0_angular_42_56" cx="0" cy="0" r="1" gradientUnits="userSpaceOnUse" gradientTransform="translate(104.5 103.5) rotate(90) scale(88.5)">
<stop stop-color="#0AA351"/>
<stop offset="1" stop-color="#C4C4C4" stop-opacity="0"/>
</radialGradient>
</defs>
</svg>
